<?xml version="1.0" encoding="utf-8"?>
<!-- Generator: Adobe Illustrator 21.0.0, SVG Export Plug-In . SVG Version: 6.00 Build 0)  -->
<svg version="1.1" id="Слой_1" xmlns="http://www.w3.org/2000/svg" xmlns:xlink="http://www.w3.org/1999/xlink" x="0px" y="0px"
	 viewBox="0 0 512 463.8" style="enable-background:new 0 0 512 463.8;" xml:space="preserve">
<style type="text/css">
	.st0{fill:#FFFFFF;}
</style>
<path class="st0" d="M400.6,241c-61.4,0-111.4,50-111.4,111.4s50,111.4,111.4,111.4S512,413.8,512,352.4C512,291,462,241,400.6,241z
	 M432.7,367.4h-17.1v17.1c0,8.3-6.7,15-15,15s-15-6.7-15-15v-17.1h-17.1c-8.3,0-15-6.7-15-15c0-8.3,6.7-15,15-15h17.1v-17.1
	c0-8.3,6.7-15,15-15s15,6.7,15,15v17.1h17.1c8.3,0,15,6.7,15,15C447.7,360.7,441,367.4,432.7,367.4z"/>
<path class="st0" d="M159.6,222.8c61.4,0,111.4-50,111.4-111.4S221,0,159.6,0C98.2,0,48.2,50,48.2,111.4
	C48.2,172.8,98.2,222.8,159.6,222.8z"/>
<path class="st0" d="M291.5,262.6c-11.3-16.5-25.5-30.8-42-42.1c-24.4,20.1-55.7,32.3-89.8,32.3s-65.4-12.1-89.8-32.3
	C27.7,249.3,0,297.7,0,352.4v56.2c0,30.4,24.7,55.2,55.2,55.2H264c13.4,0,25.7-4.8,35.3-12.8c-24.8-25.5-40.1-60.3-40.1-98.6
	C259.2,318.3,271.3,287,291.5,262.6z"/>
</svg>
