<?xml version="1.0" encoding="utf-8"?>
<!-- Generator: Adobe Illustrator 21.0.0, SVG Export Plug-In . SVG Version: 6.00 Build 0)  -->
<svg version="1.1" id="Capa_1" xmlns="http://www.w3.org/2000/svg" xmlns:xlink="http://www.w3.org/1999/xlink" x="0px" y="0px"
	 viewBox="0 0 492.9 492.9" style="enable-background:new 0 0 492.9 492.9;" xml:space="preserve">
<style type="text/css">
	.st0{fill:#FFFFFF;}
</style>
<g id="XMLID_272_">
	<path id="XMLID_276_" class="st0" d="M409.6,406.2c6.9-27.6,7.4-55.9,1.5-83.7c-7.7-36.4-18.2-81.9-19.4-87.5
		c-2.7-12-11.8-20.9-23-24l-125.6,20.7c-2.9,0.5-5.6,1.5-8.1,2.8c-4.2,2.1-7.9,5-10.7,8.9c-4.5,6.3-6.3,13.9-5.1,21.5
		c2.1,12.7,12.3,22.1,24.5,23.8c2.8,0.4,5.7,0.5,8.6,0l52.2-8.5c4.5-0.7,8.6,2.9,9.2,6.6c0.7,4.4-2.2,8.5-6.6,9.2l-52.2,8.5
		c-6.4,1.1-8.7,0.4-11,0.3c-0.6,5.3-2,10.6-4.4,15.5c-5.6,11.6-15.5,20.2-27.6,24.4c-13.1,4.5-27.2,3.2-39.2-3.6
		c-5.6,7.4-13.3,13.3-22.4,16.5c-11.1,3.8-22.9,3.7-34.6-1.3l28.3,82.3c11.1,32.4,41.6,54.2,75.9,54.2h105.5
		c36.6,0,68.5-24.7,77.7-60.2L409.6,406.2z"/>
	<path id="XMLID_273_" class="st0" d="M144.9,342.6c13.8-4.8,22.1-18,21.4-31.9c6.2,16.2,23.9,24.7,40.3,19
		c12.8-4.4,21-16.2,21.6-29c-12.9-6.2-22.5-18.2-25-33.2c-1.4-8.6-0.2-17.2,3.1-25c1.3-2.9,2.8-5.8,4.7-8.5
		c7-9.8,17.4-16.2,29.3-18.1l30-4.9l77.2-12.7l31.7-135.8c4.5-19.4-7.6-38.9-27-43.4c-19.4-4.6-38.9,7.5-43.4,27l-37.9,162.2
		L208.8,24.5c-6.4-18.9-26.9-29-45.9-22.6c-18.9,6.4-29,26.9-22.6,45.8l35.5,104.6l7.9,23.3c-6-5.8-13.8-9.5-22.3-9.5
		c-3.5,0-7,0.6-10.4,1.8c-16.8,5.8-25.7,24-19.9,40.8l5.2,15c-6-8.8-16-14-26.5-14c-3.5,0-7,0.6-10.5,1.8
		c-16.8,5.8-25.6,24.1-19.8,40.9l24.5,70.3C109.9,339.7,128.4,348.4,144.9,342.6z"/>
</g>
</svg>
