<?xml version="1.0" encoding="utf-8"?>
<!-- Generator: Adobe Illustrator 21.0.0, SVG Export Plug-In . SVG Version: 6.00 Build 0)  -->
<svg version="1.1" id="Capa_1" xmlns="http://www.w3.org/2000/svg" xmlns:xlink="http://www.w3.org/1999/xlink" x="0px" y="0px"
	 viewBox="0 0 461.3 322.6" style="enable-background:new 0 0 461.3 322.6;" xml:space="preserve">
<style type="text/css">
	.st0{fill:#FFFFFF;}
</style>
<g>
	<g>
		<path class="st0" d="M458.2,131.6L407.6,29.2C398.8,11.3,380.9,0,360.4,0H100.4C79.9,0,62.5,10.8,53.2,29.2L2.6,131.1
			C1,134.1,0,137.7,0,140.8v137.7c0,24.1,19.5,44,44,44h373.2c24.1,0,44-19.5,44-44V141.3C460.8,137.7,459.8,134.1,458.2,131.6z
			 M319.5,119.3c-10.2,0-18.9,7.2-21.5,17.4c-0.5,2-12.3,56.8-68.1,56.8c-54.3,0-66.6-50.7-68.1-56.8c-2-10.2-10.8-17.4-21.5-17.4
			H57.3l35.3-70.7c1.5-2.6,4.6-5.1,7.7-5.1h260.1c3.1,0,6.1,1.5,7.7,5.1l34.8,70.7L319.5,119.3L319.5,119.3z"/>
	</g>
</g>
</svg>
