<?xml version="1.0" encoding="utf-8"?>
<!-- Generator: Adobe Illustrator 21.0.0, SVG Export Plug-In . SVG Version: 6.00 Build 0)  -->
<svg version="1.1" id="Layer_1" xmlns="http://www.w3.org/2000/svg" xmlns:xlink="http://www.w3.org/1999/xlink" x="0px" y="0px"
	 viewBox="0 0 492 408.7" style="enable-background:new 0 0 492 408.7;" xml:space="preserve">
<style type="text/css">
	.st0{fill:#FFFFFF;}
</style>
<g>
	<g>
		<path class="st0" d="M27.8,243.5l-0.8-0.2l329.2-0.7L253,346.5c-5.1,5.1-7.8,11.9-7.8,19.1c0,7.2,2.8,14,7.9,19.1l16.1,16.1
			c5.1,5.1,11.8,7.8,19,7.8c7.2,0,13.9-2.8,19-7.9l177-177.8c5.1-5.1,7.8-11.9,7.8-19.1c0-7.2-2.8-14-7.9-19.1L306.3,7.8
			c-5.1-5-11.8-7.8-19-7.8c-7.2,0-13.9,2.8-19,7.9L252.2,24c-5.1,5.1-7.8,11.8-7.8,19c0,7.2,2.8,13.6,7.9,18.6l104.9,104.1l-330,0.7
			C12.4,166.5,0,179.4,0,194.2L0.1,217C0.1,231.8,12.9,243.5,27.8,243.5z"/>
	</g>
</g>
</svg>
